<svg xmlns="http://www.w3.org/2000/svg" viewBox="0 0 64 64" width="64" height="64">
  <g fill="#FFC830" stroke="#1A1410" stroke-width="2" stroke-linejoin="round">
    <path d="M32 4 L36 4 L37 13 a20 20 0 0 1 7 3 L51 11 L53 13 L48 19 a20 20 0 0 1 3 7 L60 27 L60 31 L51 32 L51 32 L51 32 a20 20 0 0 1 -3 7 L53 45 L51 47 L44 42 a20 20 0 0 1 -7 3 L36 54 L32 54 L31 45 a20 20 0 0 1 -7 -3 L18 47 L16 45 L21 39 a20 20 0 0 1 -3 -7 L9 31 L9 27 L18 26 a20 20 0 0 1 3 -7 L16 13 L18 11 L25 16 a20 20 0 0 1 7 -3 Z"/>
  </g>
  <circle cx="32" cy="32" r="8" fill="#1A1410"/>
  <circle cx="32" cy="32" r="3" fill="#FFC830"/>
</svg>
